<svg width="18" height="18" viewBox="0 0 18 18" fill="none" xmlns="http://www.w3.org/2000/svg">
<path d="M9.0026 -0.00537109C10.3621 -0.00458538 11.7038 0.3041 12.927 0.89752C14.1501 1.49094 15.223 2.35368 16.0651 3.421C16.9072 4.48833 17.4966 5.73251 17.7891 7.06018C18.0817 8.38786 18.0697 9.76454 17.7541 11.0869C17.4385 12.4093 16.8276 13.6431 15.967 14.6956C15.1065 15.7481 14.0188 16.592 12.7855 17.1641C11.5522 17.7361 10.2053 18.0214 8.84599 17.9986C7.48667 17.9757 6.15017 17.6453 4.9368 17.0321L4.80064 16.9589L0.698827 17.983C0.619887 18.0028 0.537579 18.0053 0.457585 17.9902C0.37759 17.9752 0.301814 17.943 0.235484 17.8958C0.169154 17.8486 0.11385 17.7876 0.073389 17.717C0.032928 17.6463 0.00827276 17.5678 0.00112524 17.4867V17.3944L0.01688 17.301L1.04093 13.2003L0.97003 13.0653C0.456342 12.051 0.139416 10.9487 0.0360105 9.81647L0.00787724 9.38659L0 8.99723C0 6.60959 0.948486 4.31975 2.6368 2.63143C4.32512 0.943115 6.61496 -0.00537109 9.0026 -0.00537109ZM9.56526 10.1226H6.18929L6.08801 10.1316C5.95828 10.155 5.84092 10.2233 5.7564 10.3245C5.67189 10.4257 5.6256 10.5534 5.6256 10.6852C5.6256 10.8171 5.67189 10.9447 5.7564 11.0459C5.84092 11.1471 5.95828 11.2154 6.08801 11.2389L6.18929 11.2479H9.56526L9.66654 11.2389C9.79627 11.2154 9.91364 11.1471 9.99815 11.0459C10.0827 10.9447 10.129 10.8171 10.129 10.6852C10.129 10.5534 10.0827 10.4257 9.99815 10.3245C9.91364 10.2233 9.79627 10.155 9.66654 10.1316L9.56526 10.1226ZM11.8159 6.74658H6.18929L6.08801 6.75558C5.95828 6.77907 5.84092 6.84737 5.7564 6.94856C5.67189 7.04975 5.6256 7.1774 5.6256 7.30924C5.6256 7.44108 5.67189 7.56874 5.7564 7.66993C5.84092 7.77111 5.95828 7.83941 6.08801 7.8629L6.18929 7.87191H11.8159L11.9172 7.8629C12.0469 7.83941 12.1643 7.77111 12.2488 7.66993C12.3333 7.56874 12.3796 7.44108 12.3796 7.30924C12.3796 7.1774 12.3333 7.04975 12.2488 6.94856C12.1643 6.84737 12.0469 6.77907 11.9172 6.75558L11.8159 6.74658Z" fill="#9E9898"/>
</svg>
