<svg width="20" height="19" viewBox="0 0 20 19" fill="none" xmlns="http://www.w3.org/2000/svg">
<path d="M2.1475 12.884C1.3825 11.918 1 11.4341 1 10C1 8.565 1.3825 8.08288 2.1475 7.116C3.6748 5.1875 6.2362 3 10 3C13.7638 3 16.3252 5.1875 17.8525 7.116C18.6175 8.08375 19 8.56587 19 10C19 11.435 18.6175 11.9171 17.8525 12.884C16.3252 14.8125 13.7638 17 10 17C6.2362 17 3.6748 14.8125 2.1475 12.884Z" stroke="#9E9898" stroke-width="1.5"/>
<path d="M12.7 10C12.7 10.6962 12.4155 11.3639 11.9092 11.8562C11.4028 12.3484 10.7161 12.625 9.99999 12.625C9.2839 12.625 8.59715 12.3484 8.0908 11.8562C7.58445 11.3639 7.29999 10.6962 7.29999 10C7.29999 9.30381 7.58445 8.63613 8.0908 8.14384C8.59715 7.65156 9.2839 7.375 9.99999 7.375C10.7161 7.375 11.4028 7.65156 11.9092 8.14384C12.4155 8.63613 12.7 9.30381 12.7 10Z" stroke="#9E9898" stroke-width="1.5"/>
<line x1="3.39718" y1="0.696275" x2="16.7611" y2="18.1721" stroke="#9E9898"/>
</svg>
