<svg width="172" height="122" viewBox="0 0 172 122" fill="none" xmlns="http://www.w3.org/2000/svg">
<rect x="0.5" y="0.5" width="171" height="121" rx="8.5" fill="#F5F6FC"/>
<rect x="0.5" y="0.5" width="171" height="121" rx="8.5" stroke="#3179A6"/>
<rect x="1" y="11" width="170" height="32" rx="4" fill="#F5F6FC"/>
<path d="M47 32C48.3833 32 49.5625 31.5125 50.5375 30.5375C51.5125 29.5625 52 28.3833 52 27C52 25.6167 51.5125 24.4375 50.5375 23.4625C49.5625 22.4875 48.3833 22 47 22C45.6167 22 44.4375 22.4875 43.4625 23.4625C42.4875 24.4375 42 25.6167 42 27C42 28.3833 42.4875 29.5625 43.4625 30.5375C44.4375 31.5125 45.6167 32 47 32ZM47 37C45.6167 37 44.3167 36.7375 43.1 36.2125C41.8833 35.6875 40.825 34.975 39.925 34.075C39.025 33.175 38.3125 32.1167 37.7875 30.9C37.2625 29.6833 37 28.3833 37 27C37 25.6167 37.2625 24.3167 37.7875 23.1C38.3125 21.8833 39.025 20.825 39.925 19.925C40.825 19.025 41.8833 18.3125 43.1 17.7875C44.3167 17.2625 45.6167 17 47 17C48.3833 17 49.6833 17.2625 50.9 17.7875C52.1167 18.3125 53.175 19.025 54.075 19.925C54.975 20.825 55.6875 21.8833 56.2125 23.1C56.7375 24.3167 57 25.6167 57 27C57 28.3833 56.7375 29.6833 56.2125 30.9C55.6875 32.1167 54.975 33.175 54.075 34.075C53.175 34.975 52.1167 35.6875 50.9 36.2125C49.6833 36.7375 48.3833 37 47 37ZM47 35C49.2333 35 51.125 34.225 52.675 32.675C54.225 31.125 55 29.2333 55 27C55 24.7667 54.225 22.875 52.675 21.325C51.125 19.775 49.2333 19 47 19C44.7667 19 42.875 19.775 41.325 21.325C39.775 22.875 39 24.7667 39 27C39 29.2333 39.775 31.125 41.325 32.675C42.875 34.225 44.7667 35 47 35Z" fill="#3179A6"/>
<path d="M72.4633 20.49V22.164H69.1333V33H67.0813V22.164H63.7333V20.49H72.4633ZM83.6314 27.798C83.6314 28.17 83.6074 28.506 83.5594 28.806H75.9814C76.0414 29.598 76.3354 30.234 76.8634 30.714C77.3914 31.194 78.0394 31.434 78.8074 31.434C79.9114 31.434 80.6914 30.972 81.1474 30.048H83.3614C83.0614 30.96 82.5154 31.71 81.7234 32.298C80.9434 32.874 79.9714 33.162 78.8074 33.162C77.8594 33.162 77.0074 32.952 76.2514 32.532C75.5074 32.1 74.9194 31.5 74.4874 30.732C74.0674 29.952 73.8574 29.052 73.8574 28.032C73.8574 27.012 74.0614 26.118 74.4694 25.35C74.8894 24.57 75.4714 23.97 76.2154 23.55C76.9714 23.13 77.8354 22.92 78.8074 22.92C79.7434 22.92 80.5774 23.124 81.3094 23.532C82.0414 23.94 82.6114 24.516 83.0194 25.26C83.4274 25.992 83.6314 26.838 83.6314 27.798ZM81.4894 27.15C81.4774 26.394 81.2074 25.788 80.6794 25.332C80.1514 24.876 79.4974 24.648 78.7174 24.648C78.0094 24.648 77.4034 24.876 76.8994 25.332C76.3954 25.776 76.0954 26.382 75.9994 27.15H81.4894ZM84.9668 27.996C84.9668 27 85.1708 26.118 85.5788 25.35C85.9988 24.582 86.5628 23.988 87.2708 23.568C87.9908 23.136 88.7828 22.92 89.6468 22.92C90.4268 22.92 91.1048 23.076 91.6808 23.388C92.2688 23.688 92.7368 24.066 93.0848 24.522V23.082H95.1548V33H93.0848V31.524C92.7368 31.992 92.2628 32.382 91.6628 32.694C91.0628 33.006 90.3788 33.162 89.6108 33.162C88.7588 33.162 87.9788 32.946 87.2708 32.514C86.5628 32.07 85.9988 31.458 85.5788 30.678C85.1708 29.886 84.9668 28.992 84.9668 27.996ZM93.0848 28.032C93.0848 27.348 92.9408 26.754 92.6528 26.25C92.3768 25.746 92.0108 25.362 91.5548 25.098C91.0988 24.834 90.6068 24.702 90.0788 24.702C89.5508 24.702 89.0588 24.834 88.6028 25.098C88.1468 25.35 87.7748 25.728 87.4868 26.232C87.2108 26.724 87.0728 27.312 87.0728 27.996C87.0728 28.68 87.2108 29.28 87.4868 29.796C87.7748 30.312 88.1468 30.708 88.6028 30.984C89.0708 31.248 89.5628 31.38 90.0788 31.38C90.6068 31.38 91.0988 31.248 91.5548 30.984C92.0108 30.72 92.3768 30.336 92.6528 29.832C92.9408 29.316 93.0848 28.716 93.0848 28.032ZM97.166 28.032C97.166 27.012 97.37 26.118 97.778 25.35C98.198 24.57 98.774 23.97 99.506 23.55C100.238 23.13 101.078 22.92 102.026 22.92C103.226 22.92 104.216 23.208 104.996 23.784C105.788 24.348 106.322 25.158 106.598 26.214H104.384C104.204 25.722 103.916 25.338 103.52 25.062C103.124 24.786 102.626 24.648 102.026 24.648C101.186 24.648 100.514 24.948 100.01 25.548C99.518 26.136 99.272 26.964 99.272 28.032C99.272 29.1 99.518 29.934 100.01 30.534C100.514 31.134 101.186 31.434 102.026 31.434C103.214 31.434 104 30.912 104.384 29.868H106.598C106.31 30.876 105.77 31.68 104.978 32.28C104.186 32.868 103.202 33.162 102.026 33.162C101.078 33.162 100.238 32.952 99.506 32.532C98.774 32.1 98.198 31.5 97.778 30.732C97.37 29.952 97.166 29.052 97.166 28.032ZM113.773 22.92C114.529 22.92 115.201 23.082 115.789 23.406C116.389 23.73 116.857 24.21 117.193 24.846C117.541 25.482 117.715 26.25 117.715 27.15V33H115.681V27.456C115.681 26.568 115.459 25.89 115.015 25.422C114.571 24.942 113.965 24.702 113.197 24.702C112.429 24.702 111.817 24.942 111.361 25.422C110.917 25.89 110.695 26.568 110.695 27.456V33H108.643V19.68H110.695V24.234C111.043 23.814 111.481 23.49 112.009 23.262C112.549 23.034 113.137 22.92 113.773 22.92ZM129.422 27.798C129.422 28.17 129.398 28.506 129.35 28.806H121.772C121.832 29.598 122.126 30.234 122.654 30.714C123.182 31.194 123.83 31.434 124.598 31.434C125.702 31.434 126.482 30.972 126.938 30.048H129.152C128.852 30.96 128.306 31.71 127.514 32.298C126.734 32.874 125.762 33.162 124.598 33.162C123.65 33.162 122.798 32.952 122.042 32.532C121.298 32.1 120.71 31.5 120.278 30.732C119.858 29.952 119.648 29.052 119.648 28.032C119.648 27.012 119.852 26.118 120.26 25.35C120.68 24.57 121.262 23.97 122.006 23.55C122.762 23.13 123.626 22.92 124.598 22.92C125.534 22.92 126.368 23.124 127.1 23.532C127.832 23.94 128.402 24.516 128.81 25.26C129.218 25.992 129.422 26.838 129.422 27.798ZM127.28 27.15C127.268 26.394 126.998 25.788 126.47 25.332C125.942 24.876 125.288 24.648 124.508 24.648C123.8 24.648 123.194 24.876 122.69 25.332C122.186 25.776 121.886 26.382 121.79 27.15H127.28ZM133.494 24.522C133.794 24.018 134.19 23.628 134.682 23.352C135.186 23.064 135.78 22.92 136.464 22.92V25.044H135.942C135.138 25.044 134.526 25.248 134.106 25.656C133.698 26.064 133.494 26.772 133.494 27.78V33H131.442V23.082H133.494V24.522Z" fill="#3179A6"/>
<rect width="70" height="68" transform="translate(51 43)" fill="#F5F6FC"/>
<path d="M106.122 89C107.416 89 108.656 88.4943 109.571 87.5941C110.486 86.6939 111 85.473 111 84.2V57.8C111 56.527 110.486 55.3061 109.571 54.4059C108.656 53.5057 107.416 53 106.122 53H80.4146C81.2683 54.464 81.7317 56.12 81.7317 57.8H106.122V84.2H84.1707V89M93.9268 65V69.8H79.2927V101H74.4146V86.6H69.5366V101H64.6585V81.8H61V69.8C61 68.527 61.5139 67.3061 62.4287 66.4059C63.3436 65.5057 64.5843 65 65.878 65H93.9268ZM76.8537 57.8C76.8537 59.073 76.3397 60.2939 75.4249 61.1941C74.5101 62.0943 73.2693 62.6 71.9756 62.6C70.6819 62.6 69.4411 62.0943 68.5263 61.1941C67.6115 60.2939 67.0976 59.073 67.0976 57.8C67.0976 56.527 67.6115 55.3061 68.5263 54.4059C69.4411 53.5057 70.6819 53 71.9756 53C73.2693 53 74.5101 53.5057 75.4249 54.4059C76.3397 55.3061 76.8537 56.527 76.8537 57.8Z" fill="#3179A6"/>
</svg>
