<svg width="43" height="40" viewBox="0 0 43 40" fill="none" xmlns="http://www.w3.org/2000/svg">
<path fill-rule="evenodd" clip-rule="evenodd" d="M33.4281 21.4424C28.4174 21.4417 24.3548 25.5956 24.3542 30.72C24.3537 35.8446 28.4153 39.9993 33.4261 40C38.4369 40.0005 42.4994 35.8468 42.5 30.7222C42.5 25.6005 38.4403 21.4459 33.4302 21.4424H33.4281ZM34.0098 37.5802V36.7786C34.0098 36.449 33.7485 36.1817 33.4262 36.1817C33.1039 36.1817 32.8426 36.449 32.8426 36.7786V37.5802C29.5871 37.2869 27.0063 34.6475 26.7196 31.3181H27.5054C27.8277 31.3181 28.089 31.0508 28.089 30.7212C28.089 30.3916 27.8277 30.1243 27.5054 30.1243H26.7196C27.0063 26.795 29.5871 24.1556 32.8426 23.8623V24.6649C32.8426 24.9946 33.1039 25.2618 33.4262 25.2618C33.7485 25.2618 34.0098 24.9946 34.0098 24.6649V23.8665C37.2657 24.1589 39.847 26.7987 40.1329 30.1286H39.3471C39.0248 30.1286 38.7635 30.3958 38.7635 30.7254C38.7635 31.0551 39.0248 31.3223 39.3471 31.3223H40.1329C39.8447 34.6497 37.2646 37.2865 34.0109 37.5791L34.0098 37.5802Z" fill="#3179A6"/>
<path fill-rule="evenodd" clip-rule="evenodd" d="M36.8091 29.8251H34.7043C34.4156 29.3952 33.9389 29.1378 33.429 29.1362H33.403L31.4854 26.3725C31.2043 25.9695 30.6571 25.8758 30.263 26.1631C29.8689 26.4505 29.7773 27.0101 30.0583 27.4132L31.977 30.1769C31.9146 30.3506 31.8819 30.534 31.8804 30.719C31.8804 31.4126 32.322 32.0253 32.9698 32.2307C33.6176 32.4361 34.3207 32.1862 34.7043 31.6142L36.8092 31.6141C37.2934 31.6141 37.6859 31.2126 37.6859 30.7175C37.6859 30.2223 37.2934 29.8208 36.8092 29.8208L36.8091 29.8251Z" fill="#3179A6"/>
<path fill-rule="evenodd" clip-rule="evenodd" d="M9.2339 12.252C9.99574 12.2522 10.7265 11.943 11.2653 11.3922C11.8041 10.8414 12.1068 10.0941 12.1068 9.315V2.93709C12.1068 1.31498 10.821 0 9.23494 0C7.64887 0 6.3631 1.31498 6.3631 2.93709V9.315C6.36283 10.0938 6.66518 10.8408 7.2036 11.3917C7.74202 11.9425 8.47238 12.252 9.23394 12.252H9.2339Z" fill="#3179A6"/>
<path fill-rule="evenodd" clip-rule="evenodd" d="M26.8242 12.252C27.586 12.2522 28.3168 11.943 28.8556 11.3922C29.3944 10.8414 29.6971 10.0941 29.6971 9.315L29.6971 2.93709C29.6971 1.31498 28.4113 0 26.8252 0C25.2391 0 23.9534 1.31498 23.9534 2.93709V9.315C23.9529 10.0932 24.2551 10.8402 24.7934 11.3911C25.3317 11.9421 26.0619 12.2518 26.8235 12.252H26.8242Z" fill="#3179A6"/>
<path fill-rule="evenodd" clip-rule="evenodd" d="M13.1264 20.4095C13.1267 20.0066 12.9702 19.6202 12.6916 19.3355C12.413 19.0507 12.035 18.891 11.6411 18.8916H8.88881C8.06849 18.891 7.40304 19.5706 7.40247 20.4095L7.40247 23.2232C7.40247 24.063 8.06776 24.7439 8.88881 24.7445L11.6411 24.7444C12.0354 24.7444 12.4135 24.5841 12.6921 24.2988C12.9707 24.0134 13.127 23.6265 13.1264 23.2232V20.4095Z" fill="#3179A6"/>
<path fill-rule="evenodd" clip-rule="evenodd" d="M20.8919 20.4109C20.8919 19.5732 20.2278 18.894 19.4087 18.894H16.6512C15.832 18.894 15.168 19.5732 15.168 20.4109V23.2246C15.1675 24.0631 15.8316 24.7432 16.6513 24.7437H19.4045C20.224 24.7424 20.8877 24.0627 20.8878 23.2246L20.8919 20.4109Z" fill="#3179A6"/>
<path fill-rule="evenodd" clip-rule="evenodd" d="M24.418 18.8917C24.024 18.8911 23.6459 19.0507 23.3671 19.3354C23.0883 19.6203 22.9316 20.0067 22.9316 20.4096V23.2233C22.9376 23.9668 23.4755 24.5933 24.1955 24.6955C25.2896 22.954 26.8311 21.5539 28.6514 20.6489V20.4085C28.6517 20.0059 28.4954 19.6195 28.2168 19.3347C27.9382 19.0498 27.5602 18.8901 27.1663 18.8906L24.418 18.8917Z" fill="#3179A6"/>
<path fill-rule="evenodd" clip-rule="evenodd" d="M8.8888 26.5176C8.0689 26.5169 7.40362 27.196 7.40247 28.0345V30.8492C7.40357 31.6877 8.06881 32.3667 8.88871 32.3661H11.6422C12.0356 32.3665 12.413 32.2067 12.6912 31.9222C12.9695 31.6376 13.1256 31.2517 13.1254 30.8492V28.0345C13.1256 27.6321 12.9695 27.246 12.6912 26.9615C12.413 26.6771 12.0356 26.5173 11.6421 26.5176H8.8888Z" fill="#3179A6"/>
<path fill-rule="evenodd" clip-rule="evenodd" d="M19.4076 26.5186H16.6605C15.8412 26.5191 15.1773 27.1985 15.1773 28.0365V30.8491C15.177 31.2516 15.3332 31.6375 15.6114 31.9221C15.8897 32.2067 16.2671 32.3663 16.6605 32.366H19.4118C20.231 32.366 20.895 31.6869 20.895 30.8491V28.0375C20.8953 27.6342 20.7386 27.2473 20.4595 26.9623C20.1805 26.6774 19.802 26.5176 19.4076 26.5186Z" fill="#3179A6"/>
<path fill-rule="evenodd" clip-rule="evenodd" d="M23.4165 35.2728H9.45436C7.04907 35.2693 5.09973 33.2767 5.09515 30.8167L5.09516 15.8989H30.9636V19.8021C32.471 19.4363 34.0381 19.4095 35.5566 19.7234L35.5566 5.69409H31.4188V9.30827C31.4188 11.9037 29.3615 14.0077 26.8237 14.0077C24.2858 14.0077 22.2285 11.9037 22.2285 9.30827V5.69409H13.8281V9.30827C13.8281 11.9037 11.7708 14.0077 9.23298 14.0077C6.69514 14.0077 4.63782 11.9037 4.63782 9.30827V5.69409H0.5V30.8124C0.5 35.87 4.509 39.97 9.45436 39.97H26.6043C26.8122 39.97 27.0087 39.953 27.2093 39.9393C25.5518 38.7674 24.24 37.1535 23.4165 35.2728H23.4165Z" fill="#3179A6"/>
</svg>
