<svg width="17" height="19" viewBox="0 0 17 19" fill="none" xmlns="http://www.w3.org/2000/svg">
<path d="M0 7.02499C0 5.4219 -5.06639e-08 4.6212 0.4981 4.1231C0.9962 3.625 1.7969 3.625 3.4 3.625H13.6C15.2031 3.625 16.0038 3.625 16.5019 4.1231C17 4.6212 17 5.4219 17 7.02499C17 7.42534 17 7.62594 16.8759 7.75089C16.7509 7.87499 16.5495 7.87499 16.15 7.87499H0.85C0.44965 7.87499 0.24905 7.87499 0.1241 7.75089C-7.59959e-08 7.62594 0 7.42449 0 7.02499Z" fill="#3179A6"/>
<path fill-rule="evenodd" clip-rule="evenodd" d="M0 14.6751C0 16.2782 -5.06639e-08 17.0789 0.4981 17.577C0.9962 18.0751 1.7969 18.0751 3.4 18.0751H13.6C15.2031 18.0751 16.0038 18.0751 16.5019 17.577C17 17.0789 17 16.2782 17 14.6751V10.4251C17 10.0247 17 9.82412 16.8759 9.69917C16.7509 9.57507 16.5495 9.57507 16.15 9.57507H0.85C0.44965 9.57507 0.24905 9.57507 0.1241 9.69917C-7.59959e-08 9.82412 0 10.0256 0 10.4251V14.6751ZM4.25 12.1251C4.25 11.7247 4.25 11.5241 4.3741 11.3992C4.49905 11.2751 4.7005 11.2751 5.1 11.2751H6.8C7.20035 11.2751 7.40095 11.2751 7.5259 11.3992C7.65 11.5241 7.65 11.7247 7.65 12.1251C7.65 12.5254 7.65 12.726 7.5259 12.851C7.40095 12.9751 7.1995 12.9751 6.8 12.9751H5.1C4.69965 12.9751 4.49905 12.9751 4.3741 12.851C4.25 12.726 4.25 12.5246 4.25 12.1251ZM4.3741 14.7992C4.25 14.9241 4.25 15.1256 4.25 15.5251C4.25 15.9246 4.25 16.126 4.3741 16.251C4.49905 16.3751 4.7005 16.3751 5.1 16.3751H6.8C7.20035 16.3751 7.40095 16.3751 7.5259 16.251C7.65 16.126 7.65 15.9246 7.65 15.5251C7.65 15.1256 7.65 14.9241 7.5259 14.7992C7.40095 14.6751 7.1995 14.6751 6.8 14.6751H5.1C4.69965 14.6751 4.49905 14.6751 4.3741 14.7992ZM9.35 12.1251C9.35 11.7247 9.35 11.5241 9.4741 11.3992C9.59905 11.2751 9.8005 11.2751 10.2 11.2751H11.9C12.3004 11.2751 12.501 11.2751 12.6259 11.3992C12.75 11.5241 12.75 11.7247 12.75 12.1251C12.75 12.5254 12.75 12.726 12.6259 12.851C12.501 12.9751 12.2995 12.9751 11.9 12.9751H10.2C9.79965 12.9751 9.59905 12.9751 9.4741 12.851C9.35 12.726 9.35 12.5246 9.35 12.1251ZM9.4741 14.7992C9.35 14.9241 9.35 15.1256 9.35 15.5251C9.35 15.9246 9.35 16.126 9.4741 16.251C9.59905 16.3751 9.79965 16.3751 10.2 16.3751H11.9C12.3004 16.3751 12.501 16.3751 12.6259 16.251C12.75 16.126 12.75 15.9246 12.75 15.5251C12.75 15.1256 12.75 14.9241 12.6259 14.7992C12.501 14.6751 12.2995 14.6751 11.9 14.6751H10.2C9.79965 14.6751 9.59905 14.6751 9.4741 14.7992Z" fill="#3179A6"/>
<path d="M4.25 1.92505V4.47504M12.75 1.92505V4.47504" stroke="#3179A6" stroke-width="2" stroke-linecap="round"/>
</svg>
