<svg width="62" height="40" viewBox="0 0 62 40" fill="none" xmlns="http://www.w3.org/2000/svg">
<path fill-rule="evenodd" clip-rule="evenodd" d="M44.2675 0.00350027C44.5854 0.395902 44.8692 0.821222 45.1152 1.27365C45.4144 2.12652 46.1848 2.65343 47.001 2.56346C47.8839 2.48906 48.7602 2.29744 49.6364 2.13881C53.1744 1.60819 56.4954 4.16174 57.314 8.04205C57.3929 8.59308 57.3521 9.15714 57.195 9.68688C56.9109 10.6947 56.521 11.666 56.1734 12.6519C55.8456 13.5768 55.5724 13.6781 54.7237 13.162L54.8874 12.4726L54.4252 12.1748L54.0451 12.9301L49.3939 10.8875L49.6244 10.1164L49.0944 9.87969L48.7972 10.5532C47.8412 10.3031 47.7047 10.0225 48.0456 9.04022C48.4161 7.97256 48.7962 6.90982 49.2246 5.6933C48.6887 5.6014 48.1467 5.56058 47.6044 5.57131C45.3099 5.85319 43.28 2.8869 43.1063 1.16767C43.0693 0.801636 43.3848 0.390391 43.5433 0L44.2675 0.00350027ZM56.7222 8.36441C56.7001 8.14687 56.667 7.93097 56.6227 7.71768C55.647 4.24527 52.4752 2.16224 49.2836 2.89804C48.4973 3.10038 47.6946 3.21403 46.8878 3.23719C45.8811 3.3203 44.9451 2.65473 44.5869 1.60093C44.4994 1.34921 44.3799 1.1129 44.2318 0.89931C44.1489 0.790727 43.9566 0.787078 43.8122 0.73584C43.7626 0.870712 43.733 1.01378 43.7248 1.1593C44.143 3.21485 45.7176 4.72182 47.6002 4.86854C48.429 4.84612 49.2519 5.02642 50.0116 5.39685C52.1871 6.40359 54.3962 7.33824 56.7179 8.3595L56.7222 8.36441Z" fill="#3179A6"/>
<path fill-rule="evenodd" clip-rule="evenodd" d="M32.135 18.4087L34.1804 17.0665C34.7771 17.5289 35.4127 17.9253 36.0782 18.25C36.9427 18.5418 37.8758 18.4325 38.6672 17.9467C39.4584 17.4608 40.0412 16.6395 40.2837 15.6682C40.3895 15.3159 40.5781 15.0019 40.8299 14.759C41.5805 14.0368 42.3594 13.3547 43.1516 12.6848C43.4042 12.5242 43.4955 12.1674 43.357 11.8819C42.9801 10.763 42.6304 9.63186 42.2831 8.50194C42.058 7.76986 42.2351 7.24885 42.7563 7.03771C43.2775 6.82658 43.7222 7.10362 43.9583 7.82475C44.4181 9.24623 44.8542 10.6775 45.3229 12.0954C45.5598 12.6713 45.3717 13.3539 44.886 13.6816C43.9529 14.4784 43.058 15.3276 42.1239 16.1219C41.8102 16.3308 41.6686 16.7548 41.783 17.142C42.2549 19.6361 42.7337 22.1326 43.1028 24.6473C43.177 25.4936 43.1242 26.3476 42.9465 27.1744C42.7769 27.9525 42.564 28.7182 42.3095 29.467L45.571 28.6825C45.8473 28.6154 46.1173 28.5336 46.4013 28.4787C46.8244 28.3351 47.2818 28.3973 47.6617 28.6501C48.0415 28.9028 48.3083 29.3225 48.3963 29.8063C48.4664 30.2817 48.3589 30.7685 48.0991 31.1531C47.8391 31.5376 47.4494 31.7865 47.0207 31.8415C45.3218 32.2638 43.6206 32.6688 41.9206 33.0813C41.4464 33.1971 40.9734 33.3253 40.5002 33.4327C39.931 33.6278 39.3119 33.4416 38.907 32.9535C38.5024 32.4654 38.3837 31.7616 38.6016 31.1424C38.752 30.5629 38.9291 29.9906 39.0865 29.4146L38.9249 29.273C38.29 30.0137 37.6488 30.747 37.0305 31.5035C36.9318 31.6731 36.8696 31.8661 36.8491 32.0672C36.3956 34.15 35.9521 36.2354 35.4965 38.317C35.4389 38.7938 35.2087 39.2233 34.8598 39.5055C34.5109 39.7877 34.0737 39.8979 33.6501 39.8105C33.1964 39.7005 32.8091 39.3733 32.5906 38.9158C32.3721 38.4583 32.3449 37.9168 32.5159 37.4348C32.9158 35.5472 33.4468 33.6815 33.7002 31.7695C33.9963 30.1672 34.8221 28.7486 36.0134 27.7966C36.5149 27.3991 36.7192 26.6782 36.5138 26.031C36.0273 23.7968 35.6789 21.5249 35.2735 19.2675C35.2473 19.1174 35.2025 18.9722 35.1422 18.7331C34.3217 19.2797 33.5493 19.7983 32.7725 20.3095C32.0667 20.7744 31.8165 20.7537 31.2036 20.1436C29.9653 18.9096 28.7309 17.6699 27.4999 16.4245C26.9536 15.8767 26.8901 15.3093 27.2923 14.8383C27.6759 14.3893 28.1664 14.4186 28.6853 14.9396C29.8253 16.0916 30.9683 17.2398 32.135 18.4087Z" fill="#3179A6"/>
<path fill-rule="evenodd" clip-rule="evenodd" d="M21.3997 20.1118C21.8193 24.1238 24.058 26.8032 26.161 29.6365C24.3602 31.2224 22.2509 32.3133 20.0033 32.8211C18.2223 33.18 16.3911 33.0794 14.6498 32.5271C14.0969 32.323 13.5714 32.0356 13.0878 31.6729C12.7837 31.4679 12.7706 31.1702 13.0459 30.8322C13.9867 29.6791 14.9032 28.5041 15.819 27.3242C15.9686 27.1513 16.0646 26.9293 16.0932 26.6909C16.115 24.9827 16.1052 23.2745 16.1052 21.5491C15.4967 21.9006 14.7613 22.2983 14.0499 22.7461C13.6322 23.0395 13.1022 23.046 12.6789 22.7631C11.5687 22.1116 10.4193 21.543 9.33023 20.85C9.03228 20.6175 8.84983 20.2418 8.83783 19.836C8.8605 19.5505 9.25501 19.2345 9.54762 19.0709C9.70607 18.9819 10.011 19.1466 10.2227 19.2601C11.0969 19.7286 11.971 20.1984 12.8275 20.7158C13.1561 20.9347 13.5677 20.9257 13.8883 20.6926C15.183 19.9495 16.4722 19.182 17.8139 18.5561C20.0401 17.6199 22.5387 17.9909 24.4685 19.5445C25.2021 20.2209 25.8404 21.0163 26.3621 21.9043C26.6395 22.2642 26.9172 22.6242 27.1727 23.0025C27.3309 23.1865 27.4096 23.4382 27.3888 23.6923C27.3677 23.9463 27.249 24.1777 27.0634 24.3263C26.8996 24.5057 26.6734 24.5957 26.4451 24.5722C26.2165 24.5487 26.0087 24.4142 25.8769 24.2044C25.2103 23.3503 24.5384 22.5047 23.9257 21.6079C23.313 20.7111 22.3928 20.5376 21.3997 20.1118Z" fill="#3179A6"/>
<path fill-rule="evenodd" clip-rule="evenodd" d="M5.23475 25.4878C5.70208 25.6679 6.1534 25.8967 6.58285 26.171C7.96057 27.2424 9.29907 28.3796 10.6658 29.4656C11.0179 29.6836 11.1606 30.1671 10.9939 30.576C10.4175 32.373 9.39163 33.9475 8.03792 35.1126C7.71197 35.4498 7.20649 35.4423 6.88881 35.0956C5.60178 33.9973 4.27635 32.9577 2.97413 31.884C2.39824 31.4997 2.00453 30.8501 1.89917 30.1102C1.79354 29.3704 1.98719 28.6164 2.42784 28.0514C2.74473 27.5535 3.06482 27.0594 3.40251 26.5799C3.85624 25.9545 4.51722 25.5606 5.23475 25.4878ZM8.62802 28.6265C8.24098 28.8097 7.88035 29.0564 7.55839 29.3585C6.96757 30.1556 6.41595 30.9882 5.90647 31.8527C5.61706 32.3132 5.58532 32.9168 5.82458 33.412C6.20042 31.4682 7.50505 30.2066 8.63149 28.6265H8.62802ZM6.87977 33.5948C7.67732 32.3746 8.4442 31.2057 9.19721 30.027C9.23002 29.9745 9.13372 29.8208 9.08784 29.6914C8.15825 30.6993 6.71732 33.1372 6.88537 33.5935L6.87977 33.5948Z" fill="#3179A6"/>
<path fill-rule="evenodd" clip-rule="evenodd" d="M40.0418 14.62C40.0453 16.4732 38.7204 17.9891 37.0612 18.0303C35.3797 18.0366 34.0047 16.5355 33.9719 14.6579C33.9815 12.8061 35.3074 11.2984 36.9652 11.2547C37.7737 11.2421 38.5534 11.5903 39.1309 12.2221C39.7086 12.854 40.0365 13.7171 40.0418 14.62ZM36.8648 16.6944C37.0921 16.6691 37.3137 16.6011 37.5204 16.4931C37.6986 16.31 37.8467 16.0931 37.9574 15.8525C37.765 15.7731 37.5759 15.6768 37.3783 15.6194C36.7226 15.4303 36.0736 15.246 35.4183 15.0801C35.2033 15.0411 34.9861 15.0182 34.7682 15.0117C34.8218 15.2789 34.8032 15.6109 34.9419 15.8036C35.4404 16.3913 36.1395 16.7136 36.864 16.6895L36.8648 16.6944Z" fill="#3179A6"/>
<path fill-rule="evenodd" clip-rule="evenodd" d="M17.1037 11.4932C17.89 11.4951 18.6435 11.8459 19.1981 12.4683C19.7529 13.0908 20.0634 13.9339 20.0613 14.812C20.0341 16.6137 18.7249 18.0623 17.1114 18.076C15.4749 18.0849 14.1391 16.6164 14.121 14.7889C14.1348 12.9613 15.4672 11.4892 17.1037 11.4932ZM15.3555 15.7229L15.2179 15.9169C15.3993 16.161 15.5532 16.5587 15.7642 16.6014C16.3262 16.7308 16.9042 16.7457 17.4708 16.6453C17.8607 16.4854 18.2094 16.2205 18.4857 15.8742C18.5817 15.779 18.5359 15.5081 18.5545 15.3141C18.3929 15.2811 18.2278 15.2744 18.0643 15.2946C17.6695 15.4588 17.2659 15.5957 16.8559 15.7047C16.3547 15.7478 15.8517 15.7539 15.3499 15.723L15.3555 15.7229Z" fill="#3179A6"/>
<path fill-rule="evenodd" clip-rule="evenodd" d="M19.9603 33.502C21.1785 33.0139 22.294 32.5576 23.4172 32.1268C23.5847 32.0743 23.7632 32.0846 23.9251 32.1561C25.1636 32.7019 26.3986 33.2599 27.6304 33.8302C28.0027 33.9613 28.3098 34.2586 28.4786 34.6516C28.6475 35.0446 28.6632 35.4982 28.5218 35.9045C28.3732 36.3062 28.083 36.6218 27.7195 36.777C27.3562 36.9322 26.9515 36.9132 26.6008 36.7245C24.6133 35.8386 22.6314 34.9381 20.6554 34.023C20.4087 33.8756 20.1758 33.701 19.9603 33.502Z" fill="#3179A6"/>
<path fill-rule="evenodd" clip-rule="evenodd" d="M13.2978 32.6274L16.0141 33.434C15.5048 35.202 14.9903 37.0189 14.456 38.8284C14.2853 39.5587 13.6729 40.0493 12.9986 39.9961C12.3714 39.9393 11.8556 39.4204 11.7401 38.7294C11.7001 38.5323 11.7025 38.3274 11.7475 38.1316C12.2589 36.2819 12.7854 34.4382 13.2978 32.6274Z" fill="#3179A6"/>
<path fill-rule="evenodd" clip-rule="evenodd" d="M53.7135 13.2071C53.8906 13.5439 53.9549 13.8258 54.1056 13.9051C54.2213 13.9661 54.4454 13.7745 54.7108 13.661L55.4886 13.9478L55.0517 15.1948L47.3053 11.8002L47.7422 10.5605L48.507 10.9327C48.6163 11.2097 48.6513 11.5111 48.7681 11.5562C48.9223 11.6172 49.1407 11.4781 49.3253 11.2817L53.7135 13.2071Z" fill="#3179A6"/>
<path fill-rule="evenodd" clip-rule="evenodd" d="M24.8218 14.9002C24.7871 15.4044 24.5455 15.8624 24.1667 16.1399C23.7882 16.4175 23.3158 16.4833 22.8879 16.318C22.052 15.935 21.2643 15.4321 20.5444 14.822C20.315 14.6353 20.3478 14.0497 20.2549 13.6238C20.8575 13.4861 21.4841 13.6502 21.969 14.0728C22.3398 14.3437 22.6881 14.6524 23.0618 14.927C23.6319 15.3407 24.2187 15.5713 24.8218 14.9002Z" fill="#3179A6"/>
<path fill-rule="evenodd" clip-rule="evenodd" d="M10.6777 29.0936C10.5968 28.8239 10.5083 28.5579 10.4363 28.2858C10.3712 27.737 10.2234 27.2044 9.99935 26.7105C9.38691 25.8757 8.72353 25.0889 8.01427 24.3557C7.67231 23.9798 7.32715 24.0445 7.07348 24.5326C6.98839 24.6863 6.89396 24.8334 6.79127 24.9731C6.39276 25.5502 6.39169 25.549 5.79633 25.1951C6.09027 24.7827 6.38529 24.3618 6.6867 23.9482C6.83208 23.6666 7.08148 23.4712 7.36796 23.4147C7.65444 23.3582 7.94865 23.4463 8.17138 23.6553C9.24261 24.4356 10.1285 25.4945 10.7529 26.7412C11.101 27.4414 11.1562 28.2769 10.9039 29.0265L10.6777 29.0936Z" fill="#3179A6"/>
<path fill-rule="evenodd" clip-rule="evenodd" d="M34.3301 9.81523L29.9193 3.0408L30.7069 2.5918C31.5144 3.55325 34.4808 9.33569 34.3301 9.81523Z" fill="#3179A6"/>
<path fill-rule="evenodd" clip-rule="evenodd" d="M9.88629 4.30201L10.7604 3.8335L14.5329 10.8422L14.2696 11.0338L9.88629 4.30201Z" fill="#3179A6"/>
<path fill-rule="evenodd" clip-rule="evenodd" d="M35.4747 0.825684C35.6518 3.58203 35.8244 6.25549 35.9959 8.92768L35.8092 8.98257C35.7374 8.88404 35.682 8.77211 35.6454 8.65191C35.3765 6.26279 35.1298 3.87002 34.8457 1.48217C34.7756 0.898891 35.1253 0.956236 35.4747 0.825684Z" fill="#3179A6"/>
<path fill-rule="evenodd" clip-rule="evenodd" d="M33.3416 10.9473C33.1983 10.8875 33.0508 10.8362 32.9121 10.7655C31.0417 9.79784 29.1778 8.81322 27.2986 7.86874C26.8472 7.64182 26.784 7.38064 27.0473 6.87549L33.4803 10.6788L33.3416 10.9473Z" fill="#3179A6"/>
<path fill-rule="evenodd" clip-rule="evenodd" d="M13.3897 12.3024L6.80145 8.88597L6.95429 8.19775C8.26986 8.69077 13.2192 11.7583 13.3897 12.3024Z" fill="#3179A6"/>
<path fill-rule="evenodd" clip-rule="evenodd" d="M15.6794 10.2575C15.6237 9.82437 15.5626 9.39361 15.5132 8.95921C15.286 6.94589 15.0763 4.93264 14.8314 2.91931C14.768 2.3983 14.9003 2.1433 15.4476 2.13965C15.6202 4.82405 15.7933 7.51367 15.9667 10.2087L15.6794 10.2575Z" fill="#3179A6"/>
<path fill-rule="evenodd" clip-rule="evenodd" d="M61.9999 22.3496H48.7483C49.1721 20.8138 61.4921 20.6337 61.9999 22.3496Z" fill="#3179A6"/>
<path fill-rule="evenodd" clip-rule="evenodd" d="M54.3417 21.2661H45.1085C45.5094 19.7621 53.8085 19.5206 54.3417 21.2661Z" fill="#3179A6"/>
<path fill-rule="evenodd" clip-rule="evenodd" d="M47.1024 22.2915H56.3028C55.9982 23.6697 47.913 24.1495 47.1024 22.2915Z" fill="#3179A6"/>
<path fill-rule="evenodd" clip-rule="evenodd" d="M3.55464 25.8758C3.33725 26.0433 3.10465 26.1853 2.86085 26.2992C2.45968 26.4087 2.17506 26.8059 2.16706 27.2669C2.10064 27.6635 1.9558 28.0386 1.74348 28.365C1.53115 27.5316 1.37724 26.7031 2.00648 26.0466C2.40713 25.555 3.07558 25.4813 3.55464 25.8758Z" fill="#3179A6"/>
<path fill-rule="evenodd" clip-rule="evenodd" d="M58.6265 10.1292C59.4654 9.40431 59.5431 8.26843 58.8086 7.4668C59.4019 7.70102 59.7622 8.2198 59.7149 8.77113C59.7432 9.37608 59.3024 9.92629 58.6265 10.1292Z" fill="#3179A6"/>
<path fill-rule="evenodd" clip-rule="evenodd" d="M0.612871 29.4146C0.329974 30.3826 0.507444 31.4296 1.09257 32.2454C0.580072 32.1161 0.183254 31.7039 0.0669905 31.1802C-0.121022 30.5335 0.0948117 29.8355 0.612871 29.4146Z" fill="#3179A6"/>
<path fill-rule="evenodd" clip-rule="evenodd" d="M1.29638 29.8575C0.955763 30.46 1.19995 31.1878 1.86051 31.5389L1.58671 31.6987C1.31876 31.4964 1.08147 31.2651 0.881372 31.0106C0.62789 30.593 0.813524 30.0768 1.29603 29.8574L1.29638 29.8575Z" fill="#3179A6"/>
<path fill-rule="evenodd" clip-rule="evenodd" d="M58.1207 9.6074C58.4419 9.36849 58.6082 9.0484 58.5817 8.72168C58.5548 8.39497 58.3366 8.09015 57.9787 7.87842C58.7878 8.00778 59.0525 8.214 59.0701 8.66911C59.0859 9.10105 58.9529 9.49517 58.1207 9.6074Z" fill="#3179A6"/>
</svg>
