<svg width="41" height="40" viewBox="0 0 41 40" fill="none" xmlns="http://www.w3.org/2000/svg">
<path fill-rule="evenodd" clip-rule="evenodd" d="M37.1667 7.77778C36.2826 7.77778 35.4348 8.12897 34.8096 8.75409C34.1845 9.37921 33.8333 10.2271 33.8333 11.1111V13.3333H40.5V11.1111C40.5 10.2271 40.1488 9.37921 39.5237 8.75409C38.8986 8.12897 38.0507 7.77778 37.1667 7.77778ZM40.5 15.5556H33.8333V33.8889L37.1667 38.8889L40.5 33.8889V15.5556ZM0.5 3.33333V36.6667C0.5 37.5507 0.85119 38.3986 1.47631 39.0237C2.10143 39.6488 2.94928 40 3.83333 40H28.2778C29.1618 40 30.0097 39.6488 30.6348 39.0237C31.2599 38.3986 31.6111 37.5507 31.6111 36.6667V3.33333C31.6111 2.44928 31.2599 1.60143 30.6348 0.976311C30.0097 0.35119 29.1618 0 28.2778 0H3.83333C2.94928 0 2.10143 0.35119 1.47631 0.976311C0.85119 1.60143 0.5 2.44928 0.5 3.33333ZM16.0556 10C16.0556 9.70532 16.1726 9.4227 16.381 9.21433C16.5894 9.00595 16.872 8.88889 17.1667 8.88889H26.0556C26.3502 8.88889 26.6329 9.00595 26.8412 9.21433C27.0496 9.4227 27.1667 9.70532 27.1667 10C27.1667 10.2947 27.0496 10.5773 26.8412 10.7857C26.6329 10.994 26.3502 11.1111 26.0556 11.1111H17.1667C16.872 11.1111 16.5894 10.994 16.381 10.7857C16.1726 10.5773 16.0556 10.2947 16.0556 10ZM17.1667 13.3333C16.872 13.3333 16.5894 13.4504 16.381 13.6588C16.1726 13.8671 16.0556 14.1498 16.0556 14.4444C16.0556 14.7391 16.1726 15.0217 16.381 15.2301C16.5894 15.4385 16.872 15.5556 17.1667 15.5556H26.0556C26.3502 15.5556 26.6329 15.4385 26.8412 15.2301C27.0496 15.0217 27.1667 14.7391 27.1667 14.4444C27.1667 14.1498 27.0496 13.8671 26.8412 13.6588C26.6329 13.4504 26.3502 13.3333 26.0556 13.3333H17.1667ZM16.0556 24.4444C16.0556 24.1498 16.1726 23.8671 16.381 23.6588C16.5894 23.4504 16.872 23.3333 17.1667 23.3333H26.0556C26.3502 23.3333 26.6329 23.4504 26.8412 23.6588C27.0496 23.8671 27.1667 24.1498 27.1667 24.4444C27.1667 24.7391 27.0496 25.0217 26.8412 25.2301C26.6329 25.4385 26.3502 25.5556 26.0556 25.5556H17.1667C16.872 25.5556 16.5894 25.4385 16.381 25.2301C16.1726 25.0217 16.0556 24.7391 16.0556 24.4444ZM17.1667 27.7778C16.872 27.7778 16.5894 27.8948 16.381 28.1032C16.1726 28.3116 16.0556 28.5942 16.0556 28.8889C16.0556 29.1836 16.1726 29.4662 16.381 29.6746C16.5894 29.8829 16.872 30 17.1667 30H26.0556C26.3502 30 26.6329 29.8829 26.8412 29.6746C27.0496 29.4662 27.1667 29.1836 27.1667 28.8889C27.1667 28.5942 27.0496 28.3116 26.8412 28.1032C26.6329 27.8948 26.3502 27.7778 26.0556 27.7778H17.1667ZM7.16667 24.4444V27.7778H10.5V24.4444H7.16667ZM6.05556 22.2222H11.6111C11.9058 22.2222 12.1884 22.3393 12.3968 22.5477C12.6052 22.756 12.7222 23.0386 12.7222 23.3333V28.8889C12.7222 29.1836 12.6052 29.4662 12.3968 29.6746C12.1884 29.8829 11.9058 30 11.6111 30H6.05556C5.76087 30 5.47826 29.8829 5.26988 29.6746C5.06151 29.4662 4.94444 29.1836 4.94444 28.8889V23.3333C4.94444 23.0386 5.06151 22.756 5.26988 22.5477C5.47826 22.3393 5.76087 22.2222 6.05556 22.2222ZM13.5078 10.7856C13.7102 10.576 13.8222 10.2953 13.8196 10.004C13.8171 9.71267 13.7003 9.43399 13.4942 9.22798C13.2882 9.02197 13.0096 8.90512 12.7182 8.90259C12.4269 8.90005 12.1462 9.01205 11.9367 9.21445L8.27778 12.8733L6.84111 11.4367C6.63155 11.2343 6.35088 11.1223 6.05956 11.1248C5.76823 11.1273 5.48954 11.2442 5.28354 11.4502C5.07753 11.6562 4.96067 11.9349 4.95814 12.2262C4.95561 12.5176 5.0676 12.7982 5.27 13.0078L8.27778 16.0156L13.5078 10.7856Z" fill="#3179A6"/>
</svg>
