<svg width="28" height="25" viewBox="0 0 28 25" fill="none" xmlns="http://www.w3.org/2000/svg">
<path d="M11.4782 18.2258V10.4619V18.2258ZM11.4782 18.2258L17.7068 21.6099C17.7999 21.6605 17.9053 21.6871 18.0126 21.6868C18.1198 21.6865 18.2251 21.6595 18.3179 21.6084C18.4107 21.5573 18.4878 21.4839 18.5414 21.3956C18.595 21.3073 18.6233 21.2072 18.6234 21.1052V7.58252C18.6235 7.48048 18.5953 7.38021 18.5418 7.29178C18.4882 7.20334 18.4112 7.12984 18.3183 7.07863C18.2255 7.02742 18.1201 7.00031 18.0128 7C17.9055 6.9997 17.8 7.02622 17.7068 7.0769L11.4782 10.4619M11.4782 18.2258H4.33299C3.25011 18.2258 2.21159 17.8168 1.44588 17.0888C0.68017 16.3608 0.25 15.3734 0.25 14.3439C0.25 13.3143 0.68017 12.3269 1.44588 11.5989C2.21159 10.8709 3.25011 10.4619 4.33299 10.4619H11.4782M5.10569 23.3694L4.33299 18.2258H8.41597L9.10702 22.8259C9.17699 23.3278 9.03582 23.8356 8.71418 24.2391C8.39254 24.6426 7.91643 24.9091 7.38929 24.9807C6.86215 25.0523 6.3266 24.9232 5.899 24.6215C5.4714 24.3198 5.18632 23.8698 5.10569 23.3694Z" fill="#9E9898"/>
<path fill-rule="evenodd" clip-rule="evenodd" d="M24.1641 10.6782C24.2391 10.7853 24.2662 10.9163 24.2396 11.0424C24.213 11.1685 24.1348 11.2794 24.0222 11.3507L22.4911 12.3212C22.4354 12.3587 22.3724 12.3853 22.3057 12.3993C22.239 12.4132 22.17 12.4143 22.1029 12.4025C22.0358 12.3906 21.9718 12.3661 21.9148 12.3304C21.8578 12.2946 21.809 12.2483 21.7711 12.1943C21.7333 12.1403 21.7072 12.0796 21.6945 12.0158C21.6818 11.952 21.6826 11.8864 21.697 11.823C21.7114 11.7595 21.7391 11.6994 21.7784 11.6463C21.8176 11.5932 21.8677 11.5481 21.9256 11.5138L23.4568 10.5433C23.5694 10.472 23.7072 10.4462 23.8398 10.4715C23.9724 10.4968 24.0891 10.5711 24.1641 10.6782ZM21.698 14.4407C21.698 14.312 21.7518 14.1886 21.8475 14.0976C21.9432 14.0066 22.073 13.9555 22.2084 13.9555H23.7395C23.8749 13.9555 24.0047 14.0066 24.1004 14.0976C24.1961 14.1886 24.2499 14.312 24.2499 14.4407C24.2499 14.5694 24.1961 14.6929 24.1004 14.7839C24.0047 14.8749 23.8749 14.926 23.7395 14.926H22.2084C22.073 14.926 21.9432 14.8749 21.8475 14.7839C21.7518 14.6929 21.698 14.5694 21.698 14.4407ZM21.8174 16.6049C21.8606 16.5561 21.9135 16.5159 21.9731 16.4866C22.0327 16.4573 22.0977 16.4394 22.1645 16.434C22.2314 16.4286 22.2987 16.4357 22.3626 16.4551C22.4265 16.4744 22.4858 16.5055 22.5371 16.5467L23.9457 17.6715C24.0437 17.7558 24.1035 17.8729 24.1125 17.9982C24.1215 18.1236 24.079 18.2474 23.994 18.3435C23.909 18.4397 23.788 18.5008 23.6566 18.5139C23.5252 18.527 23.3935 18.4912 23.2893 18.4139L21.8807 17.2881C21.7771 17.2055 21.7122 17.0871 21.7004 16.959C21.6885 16.8309 21.7306 16.7035 21.8174 16.6049Z" fill="#9E9898"/>
<circle cx="25.75" cy="2" r="2" fill="#D65132"/>
</svg>
