<svg width="170" height="120" viewBox="0 0 170 120" fill="none" xmlns="http://www.w3.org/2000/svg">
<rect width="170" height="120" rx="8" fill="#F5F6FC"/>
<rect y="10" width="170" height="32" rx="4" fill="#F5F6FC"/>
<path d="M53 36C51.6167 36 50.3167 35.7375 49.1 35.2125C47.8833 34.6875 46.825 33.975 45.925 33.075C45.025 32.175 44.3125 31.1167 43.7875 29.9C43.2625 28.6833 43 27.3833 43 26C43 24.6167 43.2625 23.3167 43.7875 22.1C44.3125 20.8833 45.025 19.825 45.925 18.925C46.825 18.025 47.8833 17.3125 49.1 16.7875C50.3167 16.2625 51.6167 16 53 16C54.3833 16 55.6833 16.2625 56.9 16.7875C58.1167 17.3125 59.175 18.025 60.075 18.925C60.975 19.825 61.6875 20.8833 62.2125 22.1C62.7375 23.3167 63 24.6167 63 26C63 27.3833 62.7375 28.6833 62.2125 29.9C61.6875 31.1167 60.975 32.175 60.075 33.075C59.175 33.975 58.1167 34.6875 56.9 35.2125C55.6833 35.7375 54.3833 36 53 36ZM53 34C55.2333 34 57.125 33.225 58.675 31.675C60.225 30.125 61 28.2333 61 26C61 23.7667 60.225 21.875 58.675 20.325C57.125 18.775 55.2333 18 53 18C50.7667 18 48.875 18.775 47.325 20.325C45.775 21.875 45 23.7667 45 26C45 28.2333 45.775 30.125 47.325 31.675C48.875 33.225 50.7667 34 53 34Z" fill="#9E9898"/>
<path d="M79.7894 23.216C79.7894 23.852 79.6394 24.452 79.3394 25.016C79.0394 25.58 78.5594 26.042 77.8994 26.402C77.2394 26.75 76.3934 26.924 75.3614 26.924H73.0934V32H71.0414V19.49H75.3614C76.3214 19.49 77.1314 19.658 77.7914 19.994C78.4634 20.318 78.9614 20.762 79.2854 21.326C79.6214 21.89 79.7894 22.52 79.7894 23.216ZM75.3614 25.25C76.1414 25.25 76.7234 25.076 77.1074 24.728C77.4914 24.368 77.6834 23.864 77.6834 23.216C77.6834 21.848 76.9094 21.164 75.3614 21.164H73.0934V25.25H75.3614ZM81.0625 26.996C81.0625 26 81.2665 25.118 81.6745 24.35C82.0945 23.582 82.6585 22.988 83.3665 22.568C84.0865 22.136 84.8785 21.92 85.7425 21.92C86.5225 21.92 87.2005 22.076 87.7765 22.388C88.3645 22.688 88.8325 23.066 89.1805 23.522V22.082H91.2505V32H89.1805V30.524C88.8325 30.992 88.3585 31.382 87.7585 31.694C87.1585 32.006 86.4745 32.162 85.7065 32.162C84.8545 32.162 84.0745 31.946 83.3665 31.514C82.6585 31.07 82.0945 30.458 81.6745 29.678C81.2665 28.886 81.0625 27.992 81.0625 26.996ZM89.1805 27.032C89.1805 26.348 89.0365 25.754 88.7485 25.25C88.4725 24.746 88.1065 24.362 87.6505 24.098C87.1945 23.834 86.7025 23.702 86.1745 23.702C85.6465 23.702 85.1545 23.834 84.6985 24.098C84.2425 24.35 83.8705 24.728 83.5825 25.232C83.3065 25.724 83.1685 26.312 83.1685 26.996C83.1685 27.68 83.3065 28.28 83.5825 28.796C83.8705 29.312 84.2425 29.708 84.6985 29.984C85.1665 30.248 85.6585 30.38 86.1745 30.38C86.7025 30.38 87.1945 30.248 87.6505 29.984C88.1065 29.72 88.4725 29.336 88.7485 28.832C89.0365 28.316 89.1805 27.716 89.1805 27.032ZM95.9977 23.522C96.2977 23.018 96.6937 22.628 97.1857 22.352C97.6897 22.064 98.2837 21.92 98.9677 21.92V24.044H98.4457C97.6417 24.044 97.0297 24.248 96.6097 24.656C96.2017 25.064 95.9977 25.772 95.9977 26.78V32H93.9457V22.082H95.9977V23.522ZM109.944 26.798C109.944 27.17 109.92 27.506 109.872 27.806H102.294C102.354 28.598 102.648 29.234 103.176 29.714C103.704 30.194 104.352 30.434 105.12 30.434C106.224 30.434 107.004 29.972 107.46 29.048H109.674C109.374 29.96 108.828 30.71 108.036 31.298C107.256 31.874 106.284 32.162 105.12 32.162C104.172 32.162 103.32 31.952 102.564 31.532C101.82 31.1 101.232 30.5 100.8 29.732C100.38 28.952 100.17 28.052 100.17 27.032C100.17 26.012 100.374 25.118 100.782 24.35C101.202 23.57 101.784 22.97 102.528 22.55C103.284 22.13 104.148 21.92 105.12 21.92C106.056 21.92 106.89 22.124 107.622 22.532C108.354 22.94 108.924 23.516 109.332 24.26C109.74 24.992 109.944 25.838 109.944 26.798ZM107.802 26.15C107.79 25.394 107.52 24.788 106.992 24.332C106.464 23.876 105.81 23.648 105.03 23.648C104.322 23.648 103.716 23.876 103.212 24.332C102.708 24.776 102.408 25.382 102.312 26.15H107.802ZM116.967 21.92C117.747 21.92 118.443 22.082 119.055 22.406C119.679 22.73 120.165 23.21 120.513 23.846C120.861 24.482 121.035 25.25 121.035 26.15V32H119.001V26.456C119.001 25.568 118.779 24.89 118.335 24.422C117.891 23.942 117.285 23.702 116.517 23.702C115.749 23.702 115.137 23.942 114.681 24.422C114.237 24.89 114.015 25.568 114.015 26.456V32H111.963V22.082H114.015V23.216C114.351 22.808 114.777 22.49 115.293 22.262C115.821 22.034 116.379 21.92 116.967 21.92ZM126.047 23.756V29.246C126.047 29.618 126.131 29.888 126.299 30.056C126.479 30.212 126.779 30.29 127.199 30.29H128.459V32H126.839C125.915 32 125.207 31.784 124.715 31.352C124.223 30.92 123.977 30.218 123.977 29.246V23.756H122.807V22.082H123.977V19.616H126.047V22.082H128.459V23.756H126.047Z" fill="#9E9898"/>
<rect width="70" height="68" transform="translate(50 42)" fill="#F5F6FC"/>
<path d="M82.4531 69.2634C80.3307 70.611 77.7597 71.3414 75.1169 71.3477C72.3664 71.3477 69.843 70.5585 67.7783 69.2634C66.0046 70.5282 64.2356 72.3393 62.7882 74.5713C59.4228 79.7578 59.0515 85.0779 61.9604 86.458C63.2565 87.0894 64.6234 86.6159 66.033 85.4543C65.769 86.7057 65.6368 87.9749 65.638 89.2465C65.638 95.1919 68.3341 99.996 71.6522 99.996C73.653 99.996 74.6439 98.2455 75.1193 95.5683C75.5923 98.2273 76.5856 99.996 78.5721 99.996C81.876 99.996 84.5934 95.1899 84.5934 89.2465C84.5934 87.911 84.4468 86.6361 84.1961 85.4563C85.6151 86.6199 86.9773 87.1015 88.2781 86.4621C91.1799 85.082 90.8039 79.7639 87.4409 74.5754C85.9982 72.3413 84.2245 70.5322 82.4507 69.2675L82.4531 69.2634ZM75.1145 69.3241C76.4439 69.3237 77.7603 69.0993 78.9883 68.6636C80.2163 68.2279 81.3321 67.5895 82.2718 66.7849C83.2115 65.9803 83.9568 65.0252 84.4651 63.9741C84.9734 62.923 85.2348 61.7965 85.2343 60.659C85.2339 59.5215 84.9716 58.3952 84.4624 57.3444C83.9532 56.2937 83.2071 55.339 82.2668 54.5349C81.3264 53.7308 80.2101 53.0931 78.9817 52.6582C77.7533 52.2233 76.4369 51.9996 75.1074 52C72.4219 52.0008 69.8468 52.9144 67.9485 54.5398C66.0502 56.1652 64.9843 58.3693 64.9853 60.6671C64.9862 62.965 66.0539 65.1684 67.9535 66.7927C69.8531 68.4169 72.429 69.3249 75.1145 69.3241ZM100.342 80.3933C103.908 80.3933 106.803 77.9164 106.803 74.8607C106.803 71.8051 103.904 69.3241 100.34 69.3241C98.6236 69.3247 96.9781 69.9081 95.7648 70.9463C94.5515 71.9845 93.8695 73.3925 93.8689 74.8607C93.8702 76.3289 94.5527 77.7367 95.7665 78.7745C96.9803 79.8123 98.626 80.3933 100.342 80.3933ZM108.217 83.7464C107.295 82.3197 106.165 81.1622 105.029 80.3528C103.705 81.1825 102.097 81.6884 100.34 81.6884C98.5823 81.6884 96.967 81.1825 95.6497 80.3528C94.5146 81.1622 93.3841 82.3197 92.457 83.7464C90.3049 87.061 90.0684 90.4607 91.9273 91.343C92.755 91.7477 93.63 91.4442 94.5287 90.7035C94.3658 91.5034 94.2835 92.3138 94.2828 93.1258C94.2828 96.9302 96.0045 100 98.1259 100C99.403 100 100.042 98.8809 100.344 97.171C100.647 98.8708 101.281 99.998 102.553 99.998C104.665 99.998 106.401 96.9261 106.401 93.1258C106.401 92.2759 106.306 91.4584 106.146 90.7056C107.051 91.4482 107.924 91.7578 108.757 91.3471C110.606 90.4688 110.365 87.0671 108.217 83.7524V83.7464Z" fill="#9E9898"/>
</svg>
