<svg width="20" height="16" viewBox="0 0 20 16" fill="none" xmlns="http://www.w3.org/2000/svg">
<path d="M2.1475 10.884C1.3825 9.918 1 9.43413 1 8C1 6.565 1.3825 6.08288 2.1475 5.116C3.6748 3.1875 6.2362 1 10 1C13.7638 1 16.3252 3.1875 17.8525 5.116C18.6175 6.08375 19 6.56587 19 8C19 9.435 18.6175 9.91712 17.8525 10.884C16.3252 12.8125 13.7638 15 10 15C6.2362 15 3.6748 12.8125 2.1475 10.884Z" stroke="#9E9898" stroke-width="1.5"/>
<path d="M12.7 8C12.7 8.69619 12.4156 9.36387 11.9092 9.85616C11.4029 10.3484 10.7161 10.625 10 10.625C9.28396 10.625 8.59721 10.3484 8.09086 9.85616C7.58451 9.36387 7.30005 8.69619 7.30005 8C7.30005 7.30381 7.58451 6.63613 8.09086 6.14384C8.59721 5.65156 9.28396 5.375 10 5.375C10.7161 5.375 11.4029 5.65156 11.9092 6.14384C12.4156 6.63613 12.7 7.30381 12.7 8Z" stroke="#9E9898" stroke-width="1.5"/>
</svg>
