<svg width="170" height="120" viewBox="0 0 170 120" fill="none" xmlns="http://www.w3.org/2000/svg">
<rect width="170" height="120" rx="8" fill="#F5F6FC"/>
<rect y="10" width="170" height="32" rx="4" fill="#F5F6FC"/>
<path d="M46 36C44.6167 36 43.3167 35.7375 42.1 35.2125C40.8833 34.6875 39.825 33.975 38.925 33.075C38.025 32.175 37.3125 31.1167 36.7875 29.9C36.2625 28.6833 36 27.3833 36 26C36 24.6167 36.2625 23.3167 36.7875 22.1C37.3125 20.8833 38.025 19.825 38.925 18.925C39.825 18.025 40.8833 17.3125 42.1 16.7875C43.3167 16.2625 44.6167 16 46 16C47.3833 16 48.6833 16.2625 49.9 16.7875C51.1167 17.3125 52.175 18.025 53.075 18.925C53.975 19.825 54.6875 20.8833 55.2125 22.1C55.7375 23.3167 56 24.6167 56 26C56 27.3833 55.7375 28.6833 55.2125 29.9C54.6875 31.1167 53.975 32.175 53.075 33.075C52.175 33.975 51.1167 34.6875 49.9 35.2125C48.6833 35.7375 47.3833 36 46 36ZM46 34C48.2333 34 50.125 33.225 51.675 31.675C53.225 30.125 54 28.2333 54 26C54 23.7667 53.225 21.875 51.675 20.325C50.125 18.775 48.2333 18 46 18C43.7667 18 41.875 18.775 40.325 20.325C38.775 21.875 38 23.7667 38 26C38 28.2333 38.775 30.125 40.325 31.675C41.875 33.225 43.7667 34 46 34Z" fill="#9E9898"/>
<path d="M71.4633 19.49V21.164H68.1333V32H66.0813V21.164H62.7333V19.49H71.4633ZM82.6314 26.798C82.6314 27.17 82.6074 27.506 82.5594 27.806H74.9814C75.0414 28.598 75.3354 29.234 75.8634 29.714C76.3914 30.194 77.0394 30.434 77.8074 30.434C78.9114 30.434 79.6914 29.972 80.1474 29.048H82.3614C82.0614 29.96 81.5154 30.71 80.7234 31.298C79.9434 31.874 78.9714 32.162 77.8074 32.162C76.8594 32.162 76.0074 31.952 75.2514 31.532C74.5074 31.1 73.9194 30.5 73.4874 29.732C73.0674 28.952 72.8574 28.052 72.8574 27.032C72.8574 26.012 73.0614 25.118 73.4694 24.35C73.8894 23.57 74.4714 22.97 75.2154 22.55C75.9714 22.13 76.8354 21.92 77.8074 21.92C78.7434 21.92 79.5774 22.124 80.3094 22.532C81.0414 22.94 81.6114 23.516 82.0194 24.26C82.4274 24.992 82.6314 25.838 82.6314 26.798ZM80.4894 26.15C80.4774 25.394 80.2074 24.788 79.6794 24.332C79.1514 23.876 78.4974 23.648 77.7174 23.648C77.0094 23.648 76.4034 23.876 75.8994 24.332C75.3954 24.776 75.0954 25.382 74.9994 26.15H80.4894ZM83.9668 26.996C83.9668 26 84.1708 25.118 84.5788 24.35C84.9988 23.582 85.5628 22.988 86.2708 22.568C86.9908 22.136 87.7828 21.92 88.6468 21.92C89.4268 21.92 90.1048 22.076 90.6808 22.388C91.2688 22.688 91.7368 23.066 92.0848 23.522V22.082H94.1548V32H92.0848V30.524C91.7368 30.992 91.2628 31.382 90.6628 31.694C90.0628 32.006 89.3788 32.162 88.6108 32.162C87.7588 32.162 86.9788 31.946 86.2708 31.514C85.5628 31.07 84.9988 30.458 84.5788 29.678C84.1708 28.886 83.9668 27.992 83.9668 26.996ZM92.0848 27.032C92.0848 26.348 91.9408 25.754 91.6528 25.25C91.3768 24.746 91.0108 24.362 90.5548 24.098C90.0988 23.834 89.6068 23.702 89.0788 23.702C88.5508 23.702 88.0588 23.834 87.6028 24.098C87.1468 24.35 86.7748 24.728 86.4868 25.232C86.2108 25.724 86.0728 26.312 86.0728 26.996C86.0728 27.68 86.2108 28.28 86.4868 28.796C86.7748 29.312 87.1468 29.708 87.6028 29.984C88.0708 30.248 88.5628 30.38 89.0788 30.38C89.6068 30.38 90.0988 30.248 90.5548 29.984C91.0108 29.72 91.3768 29.336 91.6528 28.832C91.9408 28.316 92.0848 27.716 92.0848 27.032ZM96.166 27.032C96.166 26.012 96.37 25.118 96.778 24.35C97.198 23.57 97.774 22.97 98.506 22.55C99.238 22.13 100.078 21.92 101.026 21.92C102.226 21.92 103.216 22.208 103.996 22.784C104.788 23.348 105.322 24.158 105.598 25.214H103.384C103.204 24.722 102.916 24.338 102.52 24.062C102.124 23.786 101.626 23.648 101.026 23.648C100.186 23.648 99.514 23.948 99.01 24.548C98.518 25.136 98.272 25.964 98.272 27.032C98.272 28.1 98.518 28.934 99.01 29.534C99.514 30.134 100.186 30.434 101.026 30.434C102.214 30.434 103 29.912 103.384 28.868H105.598C105.31 29.876 104.77 30.68 103.978 31.28C103.186 31.868 102.202 32.162 101.026 32.162C100.078 32.162 99.238 31.952 98.506 31.532C97.774 31.1 97.198 30.5 96.778 29.732C96.37 28.952 96.166 28.052 96.166 27.032ZM112.773 21.92C113.529 21.92 114.201 22.082 114.789 22.406C115.389 22.73 115.857 23.21 116.193 23.846C116.541 24.482 116.715 25.25 116.715 26.15V32H114.681V26.456C114.681 25.568 114.459 24.89 114.015 24.422C113.571 23.942 112.965 23.702 112.197 23.702C111.429 23.702 110.817 23.942 110.361 24.422C109.917 24.89 109.695 25.568 109.695 26.456V32H107.643V18.68H109.695V23.234C110.043 22.814 110.481 22.49 111.009 22.262C111.549 22.034 112.137 21.92 112.773 21.92ZM128.422 26.798C128.422 27.17 128.398 27.506 128.35 27.806H120.772C120.832 28.598 121.126 29.234 121.654 29.714C122.182 30.194 122.83 30.434 123.598 30.434C124.702 30.434 125.482 29.972 125.938 29.048H128.152C127.852 29.96 127.306 30.71 126.514 31.298C125.734 31.874 124.762 32.162 123.598 32.162C122.65 32.162 121.798 31.952 121.042 31.532C120.298 31.1 119.71 30.5 119.278 29.732C118.858 28.952 118.648 28.052 118.648 27.032C118.648 26.012 118.852 25.118 119.26 24.35C119.68 23.57 120.262 22.97 121.006 22.55C121.762 22.13 122.626 21.92 123.598 21.92C124.534 21.92 125.368 22.124 126.1 22.532C126.832 22.94 127.402 23.516 127.81 24.26C128.218 24.992 128.422 25.838 128.422 26.798ZM126.28 26.15C126.268 25.394 125.998 24.788 125.47 24.332C124.942 23.876 124.288 23.648 123.508 23.648C122.8 23.648 122.194 23.876 121.69 24.332C121.186 24.776 120.886 25.382 120.79 26.15H126.28ZM132.494 23.522C132.794 23.018 133.19 22.628 133.682 22.352C134.186 22.064 134.78 21.92 135.464 21.92V24.044H134.942C134.138 24.044 133.526 24.248 133.106 24.656C132.698 25.064 132.494 25.772 132.494 26.78V32H130.442V22.082H132.494V23.522Z" fill="#9E9898"/>
<rect width="70" height="68" transform="translate(50 42)" fill="#F5F6FC"/>
<path d="M105.122 88C106.416 88 107.656 87.4943 108.571 86.5941C109.486 85.6939 110 84.473 110 83.2V56.8C110 55.527 109.486 54.3061 108.571 53.4059C107.656 52.5057 106.416 52 105.122 52H79.4146C80.2683 53.464 80.7317 55.12 80.7317 56.8H105.122V83.2H83.1707V88M92.9268 64V68.8H78.2927V100H73.4146V85.6H68.5366V100H63.6585V80.8H60V68.8C60 67.527 60.5139 66.3061 61.4287 65.4059C62.3436 64.5057 63.5843 64 64.878 64H92.9268ZM75.8537 56.8C75.8537 58.073 75.3397 59.2939 74.4249 60.1941C73.5101 61.0943 72.2693 61.6 70.9756 61.6C69.6819 61.6 68.4411 61.0943 67.5263 60.1941C66.6115 59.2939 66.0976 58.073 66.0976 56.8C66.0976 55.527 66.6115 54.3061 67.5263 53.4059C68.4411 52.5057 69.6819 52 70.9756 52C72.2693 52 73.5101 52.5057 74.4249 53.4059C75.3397 54.3061 75.8537 55.527 75.8537 56.8Z" fill="#9E9898"/>
</svg>
