<svg width="18" height="22" viewBox="0 0 18 22" fill="none" xmlns="http://www.w3.org/2000/svg">
<path d="M9.59299 21.351L9.58199 21.353L9.51099 21.388L9.49099 21.392L9.47699 21.388L9.40599 21.353C9.39532 21.3496 9.38732 21.3513 9.38199 21.358L9.37799 21.368L9.36099 21.796L9.36599 21.816L9.37599 21.829L9.47999 21.903L9.49499 21.907L9.50699 21.903L9.61099 21.829L9.62299 21.813L9.62699 21.796L9.60999 21.369C9.60732 21.3583 9.60166 21.3523 9.59299 21.351ZM9.85799 21.238L9.84499 21.24L9.65999 21.333L9.64999 21.343L9.64699 21.354L9.66499 21.784L9.66999 21.796L9.67799 21.803L9.87899 21.896C9.89165 21.8993 9.90132 21.8966 9.90799 21.888L9.91199 21.874L9.87799 21.26C9.87466 21.248 9.86799 21.2406 9.85799 21.238ZM9.14299 21.24C9.13858 21.2373 9.13331 21.2364 9.12828 21.2375C9.12325 21.2387 9.11885 21.2417 9.11599 21.246L9.10999 21.26L9.07599 21.874C9.07666 21.886 9.08232 21.894 9.09299 21.898L9.10799 21.896L9.30899 21.803L9.31899 21.795L9.32299 21.784L9.33999 21.354L9.33699 21.342L9.32699 21.332L9.14299 21.24Z" fill="#3179A6"/>
<path d="M9 0.0930176C11.3869 0.0930176 13.6761 1.04123 15.364 2.72906C17.0518 4.41688 18 6.70607 18 9.09302C18 12.167 16.324 14.683 14.558 16.488C13.6757 17.3801 12.7129 18.1888 11.682 18.904L11.256 19.194L11.056 19.327L10.679 19.567L10.343 19.772L9.927 20.014C9.64463 20.1752 9.32513 20.26 9 20.26C8.67487 20.26 8.35537 20.1752 8.073 20.014L7.657 19.772L7.137 19.452L6.945 19.327L6.535 19.054C5.42283 18.3015 4.3869 17.4421 3.442 16.488C1.676 14.682 0 12.167 0 9.09302C0 6.70607 0.948211 4.41688 2.63604 2.72906C4.32387 1.04123 6.61305 0.0930176 9 0.0930176ZM9 6.09302C8.60603 6.09302 8.21593 6.17061 7.85195 6.32138C7.48797 6.47214 7.15726 6.69312 6.87868 6.9717C6.6001 7.25027 6.37913 7.58099 6.22836 7.94497C6.0776 8.30894 6 8.69905 6 9.09302C6 9.48698 6.0776 9.87709 6.22836 10.2411C6.37913 10.605 6.6001 10.9358 6.87868 11.2143C7.15726 11.4929 7.48797 11.7139 7.85195 11.8647C8.21593 12.0154 8.60603 12.093 9 12.093C9.79565 12.093 10.5587 11.7769 11.1213 11.2143C11.6839 10.6517 12 9.88867 12 9.09302C12 8.29737 11.6839 7.53431 11.1213 6.9717C10.5587 6.40909 9.79565 6.09302 9 6.09302Z" fill="#3179A6"/>
</svg>
