<svg width="43" height="40" viewBox="0 0 43 40" fill="none" xmlns="http://www.w3.org/2000/svg">
<path d="M40.4 0.533565C31.5012 -1.31391 23.705 2.14007 21.5 3.26462C19.295 2.14007 11.4988 -1.31391 2.6 0.533565C1.3925 0.77454 0.5 1.89909 0.5 3.1843V34.5111C0.5 35.2876 0.84125 36.0373 1.41875 36.546C2.0225 37.0547 2.83625 37.2689 3.62375 37.1351C11.525 35.6892 18.4287 38.7683 20.345 39.7323C20.7125 39.9197 21.1063 40 21.5 40C21.8937 40 22.2875 39.9197 22.655 39.7323C24.5712 38.7683 31.475 35.6892 39.3763 37.1351C40.1637 37.2689 40.9775 37.0547 41.5812 36.546C42.185 36.0373 42.5 35.3144 42.5 34.5111V3.1843C42.5 1.89909 41.6075 0.77454 40.4 0.533565ZM8.40125 7.3612C11.2625 7.41475 14.15 7.89671 17.0375 8.78028C17.4948 8.91615 17.8883 9.2165 18.145 9.62566C18.4018 10.0348 18.5044 10.525 18.4339 11.0055C18.3635 11.486 18.1246 11.9241 17.7616 12.2386C17.3987 12.5532 16.9362 12.7228 16.46 12.7162C16.2762 12.7162 16.0663 12.6894 15.8825 12.6359C13.3625 11.8326 10.8162 11.431 8.34875 11.3775C8.0902 11.374 7.83486 11.3186 7.59731 11.2144C7.35976 11.1102 7.14465 10.9594 6.96427 10.7704C6.78389 10.5815 6.64177 10.3581 6.54602 10.1131C6.45027 9.86811 6.40278 9.60628 6.40625 9.34256C6.4325 8.21801 7.35125 7.41475 8.40125 7.3612ZM8.40125 15.3937C11.2625 15.4473 14.15 15.9292 17.0375 16.8128C17.4948 16.9487 17.8883 17.249 18.145 17.6582C18.4018 18.0673 18.5044 18.5576 18.4339 19.038C18.3635 19.5185 18.1246 19.9566 17.7616 20.2711C17.3987 20.5857 16.9362 20.7554 16.46 20.7487C16.2762 20.7487 16.0663 20.722 15.8825 20.6684C13.3625 19.8652 10.8162 19.4635 8.34875 19.41C8.09021 19.4065 7.83488 19.351 7.59734 19.2469C7.3598 19.1427 7.1447 18.9918 6.96432 18.8029C6.60003 18.4213 6.39929 17.9077 6.40625 17.3751C6.41321 16.8425 6.62731 16.3345 7.00145 15.963C7.37558 15.5914 7.87911 15.3866 8.40125 15.3937ZM18.35 27.3622C18.1926 27.8705 17.8459 28.2956 17.3845 28.5459C16.9231 28.7963 16.3837 28.8519 15.8825 28.7009C13.3625 27.9244 10.8162 27.496 8.34875 27.4425C7.82879 27.4285 7.33474 27.208 6.97189 26.8279C6.60903 26.4478 6.40607 25.9381 6.40625 25.4076C6.4325 24.3098 7.35125 23.4262 8.40125 23.4262C11.2625 23.4798 14.15 23.9617 17.0375 24.8453C18.0613 25.1666 18.665 26.2912 18.35 27.3622ZM34.8613 27.4425C32.3675 27.496 29.8475 27.8977 27.3275 28.7009C26.8263 28.8519 26.2869 28.7963 25.8255 28.5459C25.3641 28.2956 25.0174 27.8705 24.86 27.3622C24.545 26.2912 25.1225 25.1666 26.1725 24.8453C29.0337 23.9617 31.9475 23.4798 34.7825 23.4262H34.8088C35.885 23.4262 36.7512 24.3098 36.7775 25.4076C36.83 26.5054 35.9637 27.4157 34.8613 27.4425ZM34.8613 19.41C32.3938 19.4635 29.8475 19.8652 27.3275 20.6684C26.8263 20.8194 26.2869 20.7638 25.8255 20.5134C25.3641 20.2631 25.0174 19.838 24.86 19.3297C24.545 18.2587 25.1225 17.1609 26.1725 16.8128C29.06 15.9292 31.9475 15.4473 34.7825 15.3937H34.8088C35.885 15.3937 36.7512 16.2773 36.7775 17.3751C36.83 18.4729 35.9637 19.3832 34.8613 19.41ZM34.8613 11.3775C32.3938 11.431 29.8475 11.8326 27.3275 12.6359C26.8263 12.7869 26.2869 12.7312 25.8255 12.4809C25.3641 12.2305 25.0174 11.8055 24.86 11.2971C24.545 10.2261 25.1225 9.12836 26.1725 8.78028C29.06 7.89671 31.9475 7.41475 34.7825 7.3612H34.8088C35.885 7.3612 36.7512 8.24478 36.7775 9.34256C36.83 10.4403 35.9637 11.3507 34.8613 11.3775Z" fill="#3179A6"/>
</svg>
